<?xml version="1.0" standalone="no"?><!DOCTYPE svg PUBLIC "-//W3C//DTD SVG 1.1//EN" "http://www.w3.org/Graphics/SVG/1.1/DTD/svg11.dtd"><svg t="1565698223413" class="icon" viewBox="0 0 1024 1024" version="1.1" xmlns="http://www.w3.org/2000/svg" p-id="2110" xmlns:xlink="http://www.w3.org/1999/xlink" width="200" height="200"><defs><style type="text/css"></style></defs><path d="M597.92384 773.42208c-15.6928 0-28.39552-12.70272-28.39552-28.40064L569.52832 432.67072c0-15.70816 12.6976-28.3904 28.39552-28.3904s28.39552 12.68736 28.39552 28.3904l0 312.35072C626.31936 760.71424 613.62176 773.42208 597.92384 773.42208zM427.55072 773.42208c-15.6928 0-28.3904-12.70272-28.3904-28.40064L399.16032 432.67072c0-15.70816 12.6976-28.3904 28.3904-28.3904 15.6928 0 28.39552 12.68736 28.39552 28.3904l0 312.35072C455.94624 760.71424 443.24352 773.42208 427.55072 773.42208zM881.88416 262.2976l-141.98272 0L739.90144 205.50656c0-46.97088-37.90336-85.18656-84.55168-85.18656L370.75968 120.32c-46.97088 0-85.18656 38.21568-85.18656 85.18656L285.57312 262.2976l-141.9776 0c-15.6928 0-28.39552 12.68736-28.39552 28.39552 0 15.69792 12.6976 28.39552 28.39552 28.39552l738.28864 0c15.68768 0 28.3904-12.6976 28.3904-28.39552C910.27456 274.98496 897.57696 262.2976 881.88416 262.2976zM342.36416 205.50656c0-15.65184 12.75392-28.39552 28.39552-28.39552l284.59008 0c15.58528 0 27.76064 12.44672 27.76064 28.39552L683.1104 262.2976 342.36416 262.2976 342.36416 205.50656zM711.61856 915.39456 314.02496 915.39456c-46.976 0-85.18656-38.21056-85.18656-85.18656L228.8384 403.84512c0-15.68256 12.72832-28.39552 28.39552-28.39552s28.39552 12.71296 28.39552 28.39552l0 426.36288c0 15.67232 12.75904 28.39552 28.39552 28.39552l397.5936 0c15.6672 0 28.39552-12.7232 28.39552-28.39552L740.01408 405.01248c0-15.6672 12.6976-28.39552 28.3904-28.39552 15.69792 0 28.40064 12.72832 28.40064 28.39552l0 425.20064C796.80512 877.184 758.59456 915.39456 711.61856 915.39456z" p-id="2111"></path></svg>